<mxfile host="Electron" modified="2023-08-09T20:24:45.446Z" agent="Mozilla/5.0 (Windows NT 10.0; Win64; x64) AppleWebKit/537.36 (KHTML, like Gecko) draw.io/21.6.5 Chrome/114.0.5735.243 Electron/25.3.1 Safari/537.36" etag="2JWBqW0xI-QRJucwChX-" version="21.6.5" type="device">
  <diagram id="C5RBs43oDa-KdzZeNtuy" name="Page-1">
    <mxGraphModel dx="1434" dy="836" grid="1" gridSize="10" guides="1" tooltips="1" connect="1" arrows="1" fold="1" page="1" pageScale="1" pageWidth="827" pageHeight="1169" math="0" shadow="0">
      <root>
        <mxCell id="WIyWlLk6GJQsqaUBKTNV-0" />
        <mxCell id="WIyWlLk6GJQsqaUBKTNV-1" parent="WIyWlLk6GJQsqaUBKTNV-0" />
        <mxCell id="KhX6PwHdfyss0ffx3q-f-37" value="" style="rounded=0;whiteSpace=wrap;html=1;fillColor=#dae8fc;dashed=1;dashPattern=1 2;strokeColor=#6c8ebf;" vertex="1" parent="WIyWlLk6GJQsqaUBKTNV-1">
          <mxGeometry x="370" y="40" width="970" height="630" as="geometry" />
        </mxCell>
        <mxCell id="KhX6PwHdfyss0ffx3q-f-1" value="1 Command" style="edgeStyle=orthogonalEdgeStyle;rounded=0;orthogonalLoop=1;jettySize=auto;html=1;entryX=0;entryY=0;entryDx=0;entryDy=0;" edge="1" parent="WIyWlLk6GJQsqaUBKTNV-1" source="WIyWlLk6GJQsqaUBKTNV-3" target="WIyWlLk6GJQsqaUBKTNV-7">
          <mxGeometry relative="1" as="geometry">
            <mxPoint x="410" y="170" as="targetPoint" />
            <Array as="points">
              <mxPoint x="360" y="150" />
              <mxPoint x="360" y="150" />
            </Array>
          </mxGeometry>
        </mxCell>
        <mxCell id="WIyWlLk6GJQsqaUBKTNV-3" value="Client" style="rounded=1;whiteSpace=wrap;html=1;fontSize=12;glass=0;strokeWidth=1;shadow=0;" parent="WIyWlLk6GJQsqaUBKTNV-1" vertex="1">
          <mxGeometry x="80" y="150" width="120" height="80" as="geometry" />
        </mxCell>
        <mxCell id="KhX6PwHdfyss0ffx3q-f-13" value="Event" style="edgeStyle=orthogonalEdgeStyle;rounded=0;orthogonalLoop=1;jettySize=auto;html=1;entryX=0;entryY=0.5;entryDx=0;entryDy=0;exitX=0.5;exitY=0;exitDx=0;exitDy=0;" edge="1" parent="WIyWlLk6GJQsqaUBKTNV-1" source="KhX6PwHdfyss0ffx3q-f-26" target="KhX6PwHdfyss0ffx3q-f-12">
          <mxGeometry x="0.6471" y="10" relative="1" as="geometry">
            <Array as="points">
              <mxPoint x="810" y="100" />
            </Array>
            <mxPoint as="offset" />
          </mxGeometry>
        </mxCell>
        <mxCell id="KhX6PwHdfyss0ffx3q-f-16" value="3 Publish Events" style="edgeStyle=orthogonalEdgeStyle;rounded=0;orthogonalLoop=1;jettySize=auto;html=1;entryX=0;entryY=0.5;entryDx=0;entryDy=0;" edge="1" parent="WIyWlLk6GJQsqaUBKTNV-1" source="WIyWlLk6GJQsqaUBKTNV-7" target="KhX6PwHdfyss0ffx3q-f-26">
          <mxGeometry x="0.1429" y="10" relative="1" as="geometry">
            <mxPoint as="offset" />
          </mxGeometry>
        </mxCell>
        <mxCell id="KhX6PwHdfyss0ffx3q-f-19" value="4 Command Result" style="edgeStyle=orthogonalEdgeStyle;rounded=0;orthogonalLoop=1;jettySize=auto;html=1;exitX=-0.018;exitY=0.874;exitDx=0;exitDy=0;entryX=1.021;entryY=0.874;entryDx=0;entryDy=0;entryPerimeter=0;exitPerimeter=0;" edge="1" parent="WIyWlLk6GJQsqaUBKTNV-1" source="WIyWlLk6GJQsqaUBKTNV-7" target="WIyWlLk6GJQsqaUBKTNV-3">
          <mxGeometry relative="1" as="geometry">
            <Array as="points" />
          </mxGeometry>
        </mxCell>
        <mxCell id="KhX6PwHdfyss0ffx3q-f-22" value="Domain error" style="edgeStyle=orthogonalEdgeStyle;rounded=0;orthogonalLoop=1;jettySize=auto;html=1;exitX=0.933;exitY=0.006;exitDx=0;exitDy=0;fontColor=#CC0000;exitPerimeter=0;entryX=0.213;entryY=-0.028;entryDx=0;entryDy=0;entryPerimeter=0;fillColor=#f8cecc;strokeColor=#b85450;" edge="1" parent="WIyWlLk6GJQsqaUBKTNV-1" source="WIyWlLk6GJQsqaUBKTNV-7" target="WIyWlLk6GJQsqaUBKTNV-7">
          <mxGeometry relative="1" as="geometry">
            <mxPoint x="530" y="149.66666666666674" as="sourcePoint" />
            <Array as="points">
              <mxPoint x="570" y="151" />
              <mxPoint x="570" y="110" />
              <mxPoint x="470" y="110" />
            </Array>
          </mxGeometry>
        </mxCell>
        <mxCell id="KhX6PwHdfyss0ffx3q-f-24" value="5 Publish Events" style="edgeStyle=orthogonalEdgeStyle;rounded=0;orthogonalLoop=1;jettySize=auto;html=1;entryX=0.5;entryY=0;entryDx=0;entryDy=0;" edge="1" parent="WIyWlLk6GJQsqaUBKTNV-1" target="KhX6PwHdfyss0ffx3q-f-25">
          <mxGeometry relative="1" as="geometry">
            <mxPoint x="480" y="420" as="targetPoint" />
            <mxPoint x="480" y="230" as="sourcePoint" />
            <Array as="points">
              <mxPoint x="510" y="230" />
            </Array>
          </mxGeometry>
        </mxCell>
        <mxCell id="WIyWlLk6GJQsqaUBKTNV-7" value="Command Handler&lt;br&gt;&lt;ul&gt;&lt;li&gt;Publish(IEvent)&lt;/li&gt;&lt;/ul&gt;" style="rounded=1;whiteSpace=wrap;html=1;fontSize=12;glass=0;strokeWidth=1;shadow=0;" parent="WIyWlLk6GJQsqaUBKTNV-1" vertex="1">
          <mxGeometry x="440" y="150" width="140" height="80" as="geometry" />
        </mxCell>
        <mxCell id="KhX6PwHdfyss0ffx3q-f-7" value="" style="endArrow=none;dashed=1;html=1;rounded=1;dashPattern=1 2;" edge="1" parent="WIyWlLk6GJQsqaUBKTNV-1">
          <mxGeometry width="50" height="50" relative="1" as="geometry">
            <mxPoint x="370" y="520" as="sourcePoint" />
            <mxPoint x="370" y="80" as="targetPoint" />
          </mxGeometry>
        </mxCell>
        <mxCell id="KhX6PwHdfyss0ffx3q-f-9" value="Write Side" style="text;html=1;strokeColor=none;fillColor=none;align=center;verticalAlign=middle;whiteSpace=wrap;rounded=0;" vertex="1" parent="WIyWlLk6GJQsqaUBKTNV-1">
          <mxGeometry x="380" y="80" width="60" height="30" as="geometry" />
        </mxCell>
        <mxCell id="KhX6PwHdfyss0ffx3q-f-10" value="" style="endArrow=none;dashed=1;html=1;rounded=0;" edge="1" parent="WIyWlLk6GJQsqaUBKTNV-1">
          <mxGeometry width="50" height="50" relative="1" as="geometry">
            <mxPoint x="1060" y="340" as="sourcePoint" />
            <mxPoint x="370" y="340" as="targetPoint" />
          </mxGeometry>
        </mxCell>
        <mxCell id="KhX6PwHdfyss0ffx3q-f-12" value="Event Handler" style="whiteSpace=wrap;html=1;rounded=1;glass=0;strokeWidth=1;shadow=0;" vertex="1" parent="WIyWlLk6GJQsqaUBKTNV-1">
          <mxGeometry x="930" y="80" width="120" height="40" as="geometry" />
        </mxCell>
        <mxCell id="KhX6PwHdfyss0ffx3q-f-21" value="Domain Error" style="edgeStyle=orthogonalEdgeStyle;rounded=0;orthogonalLoop=1;jettySize=auto;html=1;fillColor=#f8cecc;strokeColor=#b85450;fontColor=#CC0000;exitX=0.5;exitY=0;exitDx=0;exitDy=0;" edge="1" parent="WIyWlLk6GJQsqaUBKTNV-1" source="KhX6PwHdfyss0ffx3q-f-12">
          <mxGeometry relative="1" as="geometry">
            <mxPoint x="470" y="150" as="targetPoint" />
            <Array as="points">
              <mxPoint x="990" y="60" />
              <mxPoint x="470" y="60" />
              <mxPoint x="470" y="150" />
            </Array>
          </mxGeometry>
        </mxCell>
        <mxCell id="KhX6PwHdfyss0ffx3q-f-40" value="4 Publish events" style="edgeStyle=orthogonalEdgeStyle;rounded=0;orthogonalLoop=1;jettySize=auto;html=1;exitX=0;exitY=0.75;exitDx=0;exitDy=0;entryX=1;entryY=0.75;entryDx=0;entryDy=0;" edge="1" parent="WIyWlLk6GJQsqaUBKTNV-1" source="KhX6PwHdfyss0ffx3q-f-14" target="KhX6PwHdfyss0ffx3q-f-26">
          <mxGeometry relative="1" as="geometry" />
        </mxCell>
        <mxCell id="KhX6PwHdfyss0ffx3q-f-14" value="Event Handler&lt;br&gt;&lt;ul style=&quot;border-color: var(--border-color);&quot;&gt;&lt;li style=&quot;border-color: var(--border-color);&quot;&gt;Publish(IEvent)&lt;/li&gt;&lt;/ul&gt;" style="whiteSpace=wrap;html=1;rounded=1;glass=0;strokeWidth=1;shadow=0;" vertex="1" parent="WIyWlLk6GJQsqaUBKTNV-1">
          <mxGeometry x="990" y="150" width="140" height="80" as="geometry" />
        </mxCell>
        <mxCell id="KhX6PwHdfyss0ffx3q-f-15" value="Event Handler" style="whiteSpace=wrap;html=1;rounded=1;glass=0;strokeWidth=1;shadow=0;" vertex="1" parent="WIyWlLk6GJQsqaUBKTNV-1">
          <mxGeometry x="1010" y="270" width="120" height="40" as="geometry" />
        </mxCell>
        <mxCell id="KhX6PwHdfyss0ffx3q-f-23" value="Read Side" style="text;html=1;strokeColor=none;fillColor=none;align=center;verticalAlign=middle;whiteSpace=wrap;rounded=0;" vertex="1" parent="WIyWlLk6GJQsqaUBKTNV-1">
          <mxGeometry x="380" y="350" width="60" height="30" as="geometry" />
        </mxCell>
        <mxCell id="KhX6PwHdfyss0ffx3q-f-32" style="edgeStyle=orthogonalEdgeStyle;rounded=0;orthogonalLoop=1;jettySize=auto;html=1;entryX=0;entryY=0.5;entryDx=0;entryDy=0;" edge="1" parent="WIyWlLk6GJQsqaUBKTNV-1" source="KhX6PwHdfyss0ffx3q-f-25" target="KhX6PwHdfyss0ffx3q-f-30">
          <mxGeometry relative="1" as="geometry" />
        </mxCell>
        <mxCell id="KhX6PwHdfyss0ffx3q-f-33" style="edgeStyle=orthogonalEdgeStyle;rounded=0;orthogonalLoop=1;jettySize=auto;html=1;entryX=0;entryY=0.5;entryDx=0;entryDy=0;" edge="1" parent="WIyWlLk6GJQsqaUBKTNV-1" source="KhX6PwHdfyss0ffx3q-f-25" target="KhX6PwHdfyss0ffx3q-f-29">
          <mxGeometry relative="1" as="geometry" />
        </mxCell>
        <mxCell id="KhX6PwHdfyss0ffx3q-f-34" style="edgeStyle=orthogonalEdgeStyle;rounded=0;orthogonalLoop=1;jettySize=auto;html=1;entryX=0;entryY=0.5;entryDx=0;entryDy=0;" edge="1" parent="WIyWlLk6GJQsqaUBKTNV-1" source="KhX6PwHdfyss0ffx3q-f-25" target="KhX6PwHdfyss0ffx3q-f-31">
          <mxGeometry relative="1" as="geometry" />
        </mxCell>
        <mxCell id="KhX6PwHdfyss0ffx3q-f-25" value="Event Dispatcher" style="whiteSpace=wrap;html=1;rounded=1;glass=0;strokeWidth=1;shadow=0;" vertex="1" parent="WIyWlLk6GJQsqaUBKTNV-1">
          <mxGeometry x="450" y="440" width="120" height="40" as="geometry" />
        </mxCell>
        <mxCell id="KhX6PwHdfyss0ffx3q-f-27" value="Event" style="edgeStyle=orthogonalEdgeStyle;rounded=0;orthogonalLoop=1;jettySize=auto;html=1;" edge="1" parent="WIyWlLk6GJQsqaUBKTNV-1" source="KhX6PwHdfyss0ffx3q-f-26" target="KhX6PwHdfyss0ffx3q-f-14">
          <mxGeometry relative="1" as="geometry" />
        </mxCell>
        <mxCell id="KhX6PwHdfyss0ffx3q-f-41" value="Event" style="edgeStyle=orthogonalEdgeStyle;rounded=0;orthogonalLoop=1;jettySize=auto;html=1;entryX=0;entryY=0.5;entryDx=0;entryDy=0;exitX=0.595;exitY=1.021;exitDx=0;exitDy=0;exitPerimeter=0;" edge="1" parent="WIyWlLk6GJQsqaUBKTNV-1" source="KhX6PwHdfyss0ffx3q-f-26" target="KhX6PwHdfyss0ffx3q-f-15">
          <mxGeometry relative="1" as="geometry">
            <mxPoint x="820" y="240" as="sourcePoint" />
            <Array as="points">
              <mxPoint x="823" y="290" />
            </Array>
          </mxGeometry>
        </mxCell>
        <mxCell id="KhX6PwHdfyss0ffx3q-f-26" value="Event Dispatcher" style="rounded=1;whiteSpace=wrap;html=1;fontSize=12;glass=0;strokeWidth=1;shadow=0;" vertex="1" parent="WIyWlLk6GJQsqaUBKTNV-1">
          <mxGeometry x="740" y="150" width="140" height="80" as="geometry" />
        </mxCell>
        <mxCell id="KhX6PwHdfyss0ffx3q-f-29" value="Event Handler&lt;br&gt;(Projection)" style="whiteSpace=wrap;html=1;rounded=1;glass=0;strokeWidth=1;shadow=0;" vertex="1" parent="WIyWlLk6GJQsqaUBKTNV-1">
          <mxGeometry x="730" y="440" width="120" height="40" as="geometry" />
        </mxCell>
        <mxCell id="KhX6PwHdfyss0ffx3q-f-30" value="Event Handler&lt;br&gt;(Projection)" style="whiteSpace=wrap;html=1;rounded=1;glass=0;strokeWidth=1;shadow=0;" vertex="1" parent="WIyWlLk6GJQsqaUBKTNV-1">
          <mxGeometry x="730" y="360" width="120" height="40" as="geometry" />
        </mxCell>
        <mxCell id="KhX6PwHdfyss0ffx3q-f-31" value="Event Handler&lt;br&gt;(Projection)" style="whiteSpace=wrap;html=1;rounded=1;glass=0;strokeWidth=1;shadow=0;" vertex="1" parent="WIyWlLk6GJQsqaUBKTNV-1">
          <mxGeometry x="730" y="530" width="120" height="40" as="geometry" />
        </mxCell>
        <mxCell id="KhX6PwHdfyss0ffx3q-f-38" value="IUnit of work" style="text;html=1;strokeColor=none;fillColor=none;align=center;verticalAlign=middle;whiteSpace=wrap;rounded=0;" vertex="1" parent="WIyWlLk6GJQsqaUBKTNV-1">
          <mxGeometry x="370" y="10" width="90" height="30" as="geometry" />
        </mxCell>
        <mxCell id="KhX6PwHdfyss0ffx3q-f-39" value="2 Handle" style="edgeStyle=orthogonalEdgeStyle;rounded=0;orthogonalLoop=1;jettySize=auto;html=1;exitX=1;exitY=0;exitDx=0;exitDy=0;entryX=1;entryY=0.25;entryDx=0;entryDy=0;" edge="1" parent="WIyWlLk6GJQsqaUBKTNV-1" source="WIyWlLk6GJQsqaUBKTNV-7" target="WIyWlLk6GJQsqaUBKTNV-7">
          <mxGeometry relative="1" as="geometry">
            <Array as="points">
              <mxPoint x="610" y="150" />
              <mxPoint x="610" y="170" />
            </Array>
          </mxGeometry>
        </mxCell>
      </root>
    </mxGraphModel>
  </diagram>
</mxfile>
